<svg width="25" height="25" viewBox="0 0 25 25" fill="none" xmlns="http://www.w3.org/2000/svg">
<rect x="0.5" y="0.5" width="24" height="24" rx="12" stroke="#DBD1BC"/>
<path d="M17 5.54793C17 5.43943 16.9569 5.33538 16.8802 5.25866C16.8035 5.18194 16.6994 5.13884 16.5909 5.13884H14.5455C13.5155 5.08753 12.507 5.44598 11.7405 6.13586C10.974 6.82574 10.5116 7.79097 10.4545 8.82066V11.0297H8.40909C8.30059 11.0297 8.19654 11.0729 8.11982 11.1496C8.0431 11.2263 8 11.3303 8 11.4388V13.5661C8 13.6746 8.0431 13.7787 8.11982 13.8554C8.19654 13.9321 8.30059 13.9752 8.40909 13.9752H10.4545V19.457C10.4545 19.5655 10.4976 19.6696 10.5744 19.7463C10.6511 19.823 10.7551 19.8661 10.8636 19.8661H13.3182C13.4267 19.8661 13.5307 19.823 13.6075 19.7463C13.6842 19.6696 13.7273 19.5655 13.7273 19.457V13.9752H15.8709C15.9619 13.9765 16.0507 13.9475 16.1233 13.8926C16.1959 13.8378 16.2482 13.7603 16.2718 13.6725L16.8609 11.5452C16.8772 11.4848 16.8794 11.4214 16.8673 11.36C16.8552 11.2985 16.8292 11.2407 16.7913 11.1909C16.7534 11.1411 16.7045 11.1007 16.6485 11.0728C16.5925 11.0448 16.5308 11.0301 16.4682 11.0297H13.7273V8.82066C13.7476 8.61814 13.8427 8.43048 13.994 8.29432C14.1453 8.15816 14.3419 8.08328 14.5455 8.0843H16.5909C16.6994 8.0843 16.8035 8.04119 16.8802 7.96448C16.9569 7.88776 17 7.7837 17 7.6752V5.54793Z" fill="#DBD1BC"/>
</svg>
