<svg width="25" height="25" viewBox="0 0 25 25" fill="none" xmlns="http://www.w3.org/2000/svg">
<rect x="0.5" y="0.5" width="24" height="24" rx="12" stroke="#DBD1BC"/>
<path d="M10.3339 12.5C10.3339 11.303 11.3037 10.3324 12.5003 10.3324C13.6969 10.3324 14.6672 11.303 14.6672 12.5C14.6672 13.6969 13.6969 14.6675 12.5003 14.6675C11.3037 14.6675 10.3339 13.6969 10.3339 12.5ZM9.16248 12.5C9.16248 14.344 10.6568 15.8387 12.5003 15.8387C14.3437 15.8387 15.8381 14.344 15.8381 12.5C15.8381 10.656 14.3437 9.16122 12.5003 9.16122C10.6568 9.16122 9.16248 10.656 9.16248 12.5ZM15.1902 9.02884C15.1901 9.18316 15.2358 9.33403 15.3215 9.46238C15.4071 9.59073 15.5289 9.69078 15.6714 9.7499C15.8139 9.80901 15.9708 9.82452 16.1221 9.79448C16.2734 9.76443 16.4124 9.69017 16.5216 9.5811C16.6307 9.47202 16.705 9.33302 16.7352 9.18168C16.7654 9.03034 16.75 8.87345 16.691 8.73085C16.632 8.58825 16.5321 8.46636 16.4038 8.38057C16.2756 8.29478 16.1248 8.24896 15.9705 8.2489H15.9702C15.7634 8.249 15.5651 8.33119 15.4189 8.47743C15.2726 8.62366 15.1904 8.82199 15.1902 9.02884ZM9.87418 17.7926C9.24043 17.7637 8.89597 17.6581 8.66706 17.5689C8.36357 17.4507 8.14704 17.3099 7.91937 17.0825C7.69171 16.8551 7.55078 16.6387 7.43315 16.3351C7.34392 16.1063 7.23835 15.7616 7.20954 15.1277C7.17803 14.4423 7.17174 14.2364 7.17174 12.5C7.17174 10.7637 7.17855 10.5583 7.20954 9.8724C7.23841 9.23847 7.34475 8.89448 7.43315 8.66493C7.5513 8.36136 7.69202 8.14476 7.91937 7.91703C8.14672 7.6893 8.36305 7.54833 8.66706 7.43067C8.89586 7.34141 9.24043 7.23582 9.87418 7.207C10.5594 7.17548 10.7652 7.16918 12.5003 7.16918C14.2354 7.16918 14.4414 7.176 15.1272 7.207C15.7609 7.23587 16.1048 7.34224 16.3343 7.43067C16.6378 7.54833 16.8543 7.68961 17.082 7.91703C17.3096 8.14445 17.45 8.36136 17.5682 8.66493C17.6574 8.89381 17.763 9.23847 17.7918 9.8724C17.8233 10.5583 17.8296 10.7637 17.8296 12.5C17.8296 14.2364 17.8233 14.4417 17.7918 15.1277C17.7629 15.7616 17.6568 16.1062 17.5682 16.3351C17.45 16.6387 17.3093 16.8553 17.082 17.0825C16.8546 17.3097 16.6378 17.4507 16.3343 17.5689C16.1055 17.6581 15.7609 17.7637 15.1272 17.7926C14.442 17.8241 14.2362 17.8304 12.5003 17.8304C10.7644 17.8304 10.5591 17.8241 9.87418 17.7926ZM9.82036 6.03724C9.12837 6.06876 8.65551 6.17852 8.24256 6.33925C7.8149 6.50524 7.45286 6.72792 7.09108 7.08923C6.72931 7.45054 6.50726 7.81326 6.34132 8.24104C6.18063 8.65437 6.07091 9.1271 6.0394 9.81929C6.00736 10.5126 6.00003 10.7342 6.00003 12.5C6.00003 14.2658 6.00736 14.4874 6.0394 15.1807C6.07091 15.8729 6.18063 16.3456 6.34132 16.7589C6.50726 17.1865 6.72936 17.5496 7.09108 17.9107C7.45281 18.2719 7.8149 18.4943 8.24256 18.6607C8.65629 18.8215 9.12837 18.9312 9.82036 18.9627C10.5138 18.9943 10.735 19.0021 12.5003 19.0021C14.2655 19.0021 14.4871 18.9948 15.1802 18.9627C15.8722 18.9312 16.3448 18.8215 16.758 18.6607C17.1854 18.4943 17.5477 18.2721 17.9095 17.9107C18.2712 17.5494 18.4928 17.1865 18.6592 16.7589C18.8199 16.3456 18.9302 15.8729 18.9612 15.1807C18.9927 14.4869 19 14.2658 19 12.5C19 10.7342 18.9927 10.5126 18.9612 9.81929C18.9296 9.12705 18.8199 8.65411 18.6592 8.24104C18.4928 7.81352 18.2707 7.45111 17.9095 7.08923C17.5483 6.72735 17.1854 6.50524 16.7585 6.33925C16.3448 6.17852 15.8722 6.06824 15.1807 6.03724C14.4876 6.00572 14.2661 5.99786 12.5008 5.99786C10.7355 5.99786 10.5138 6.0052 9.82036 6.03724Z" fill="#DBD1BC"/>
<path d="M10.3339 12.5C10.3339 11.303 11.3037 10.3324 12.5003 10.3324C13.6969 10.3324 14.6672 11.303 14.6672 12.5C14.6672 13.6969 13.6969 14.6675 12.5003 14.6675C11.3037 14.6675 10.3339 13.6969 10.3339 12.5ZM9.16248 12.5C9.16248 14.344 10.6568 15.8387 12.5003 15.8387C14.3437 15.8387 15.8381 14.344 15.8381 12.5C15.8381 10.656 14.3437 9.16122 12.5003 9.16122C10.6568 9.16122 9.16248 10.656 9.16248 12.5ZM15.1902 9.02884C15.1901 9.18316 15.2358 9.33403 15.3215 9.46238C15.4071 9.59073 15.5289 9.69078 15.6714 9.7499C15.8139 9.80901 15.9708 9.82452 16.1221 9.79448C16.2734 9.76443 16.4124 9.69017 16.5216 9.5811C16.6307 9.47202 16.705 9.33302 16.7352 9.18168C16.7654 9.03034 16.75 8.87345 16.691 8.73085C16.632 8.58825 16.5321 8.46636 16.4038 8.38057C16.2756 8.29478 16.1248 8.24896 15.9705 8.2489H15.9702C15.7634 8.249 15.5651 8.33119 15.4189 8.47743C15.2726 8.62366 15.1904 8.82199 15.1902 9.02884ZM9.87418 17.7926C9.24043 17.7637 8.89597 17.6581 8.66706 17.5689C8.36357 17.4507 8.14704 17.3099 7.91937 17.0825C7.69171 16.8551 7.55078 16.6387 7.43315 16.3351C7.34392 16.1063 7.23835 15.7616 7.20954 15.1277C7.17803 14.4423 7.17174 14.2364 7.17174 12.5C7.17174 10.7637 7.17855 10.5583 7.20954 9.8724C7.23841 9.23847 7.34475 8.89448 7.43315 8.66493C7.5513 8.36136 7.69202 8.14476 7.91937 7.91703C8.14672 7.6893 8.36305 7.54833 8.66706 7.43067C8.89586 7.34141 9.24043 7.23582 9.87418 7.207C10.5594 7.17548 10.7652 7.16918 12.5003 7.16918C14.2354 7.16918 14.4414 7.176 15.1272 7.207C15.7609 7.23587 16.1048 7.34224 16.3343 7.43067C16.6378 7.54833 16.8543 7.68961 17.082 7.91703C17.3096 8.14445 17.45 8.36136 17.5682 8.66493C17.6574 8.89381 17.763 9.23847 17.7918 9.8724C17.8233 10.5583 17.8296 10.7637 17.8296 12.5C17.8296 14.2364 17.8233 14.4417 17.7918 15.1277C17.7629 15.7616 17.6568 16.1062 17.5682 16.3351C17.45 16.6387 17.3093 16.8553 17.082 17.0825C16.8546 17.3097 16.6378 17.4507 16.3343 17.5689C16.1055 17.6581 15.7609 17.7637 15.1272 17.7926C14.442 17.8241 14.2362 17.8304 12.5003 17.8304C10.7644 17.8304 10.5591 17.8241 9.87418 17.7926ZM9.82036 6.03724C9.12837 6.06876 8.65551 6.17852 8.24256 6.33925C7.8149 6.50524 7.45286 6.72792 7.09108 7.08923C6.72931 7.45054 6.50726 7.81326 6.34132 8.24104C6.18063 8.65437 6.07091 9.1271 6.0394 9.81929C6.00736 10.5126 6.00003 10.7342 6.00003 12.5C6.00003 14.2658 6.00736 14.4874 6.0394 15.1807C6.07091 15.8729 6.18063 16.3456 6.34132 16.7589C6.50726 17.1865 6.72936 17.5496 7.09108 17.9107C7.45281 18.2719 7.8149 18.4943 8.24256 18.6607C8.65629 18.8215 9.12837 18.9312 9.82036 18.9627C10.5138 18.9943 10.735 19.0021 12.5003 19.0021C14.2655 19.0021 14.4871 18.9948 15.1802 18.9627C15.8722 18.9312 16.3448 18.8215 16.758 18.6607C17.1854 18.4943 17.5477 18.2721 17.9095 17.9107C18.2712 17.5494 18.4928 17.1865 18.6592 16.7589C18.8199 16.3456 18.9302 15.8729 18.9612 15.1807C18.9927 14.4869 19 14.2658 19 12.5C19 10.7342 18.9927 10.5126 18.9612 9.81929C18.9296 9.12705 18.8199 8.65411 18.6592 8.24104C18.4928 7.81352 18.2707 7.45111 17.9095 7.08923C17.5483 6.72735 17.1854 6.50524 16.7585 6.33925C16.3448 6.17852 15.8722 6.06824 15.1807 6.03724C14.4876 6.00572 14.2661 5.99786 12.5008 5.99786C10.7355 5.99786 10.5138 6.0052 9.82036 6.03724Z" fill="#DBD1BC"/>
</svg>
