<svg width="25" height="25" viewBox="0 0 25 25" fill="none" xmlns="http://www.w3.org/2000/svg">
<rect x="0.5" y="0.5" width="24" height="24" rx="12" stroke="#DBD1BC"/>
<path fill-rule="evenodd" clip-rule="evenodd" d="M12.3823 6.00585C12.0158 6.03617 11.665 6.18047 11.3614 6.42575C11.275 6.49558 11.1118 6.66016 11.044 6.74577C10.7859 7.07209 10.617 7.44729 10.5376 7.87079C10.5163 7.98429 10.5028 8.09282 10.4979 8.18973L10.494 8.26826H9.52912C8.46447 8.26826 8.52736 8.26587 8.47254 8.3085C8.4326 8.33956 8.40954 8.38585 8.40569 8.4427C8.40394 8.46841 8.46392 9.86409 8.53897 11.5442C8.68749 14.8689 8.6773 14.6871 8.72312 14.8304C8.80832 15.0969 9.00754 15.3007 9.25312 15.3725C9.36532 15.4054 9.17353 15.4035 12.4933 15.4035C15.8211 15.4035 15.6246 15.4054 15.7461 15.3715C15.8132 15.3528 15.9368 15.2901 16 15.2428C16.1782 15.1092 16.2979 14.9062 16.3323 14.6792C16.3379 14.6421 16.4004 13.4084 16.4921 11.5237C16.6414 8.45442 16.6426 8.42882 16.6313 8.39281C16.6177 8.34901 16.5817 8.30708 16.5398 8.28621L16.5102 8.27147L15.5326 8.26977L14.555 8.26807L14.5515 8.2281C14.5496 8.20612 14.5449 8.15351 14.5412 8.1112C14.4886 7.51624 14.224 6.94225 13.8225 6.552C13.4173 6.15821 12.9021 5.96284 12.3823 6.00585ZM12.733 6.56523C12.9152 6.60013 13.0749 6.66502 13.2288 6.76673C13.5699 6.99205 13.8304 7.38154 13.9395 7.82912C13.9708 7.9576 13.9863 8.06147 13.9986 8.22499L14.0019 8.26826H12.5238H11.0456L11.0497 8.18973C11.0571 8.04706 11.0894 7.866 11.1328 7.72412C11.2375 7.38199 11.4167 7.09612 11.6582 6.88612C11.8617 6.70921 12.0872 6.60228 12.3467 6.55963C12.42 6.54757 12.6589 6.55103 12.733 6.56523ZM12.739 9.45073C13.0987 9.49764 13.411 9.60583 13.7145 9.78865C13.7916 9.83504 13.8283 9.8669 13.8348 9.89286C13.8405 9.91571 13.8247 9.94955 13.7611 10.0507C13.7358 10.0911 13.7055 10.1401 13.6938 10.1595C13.6488 10.2343 13.6343 10.2348 13.5237 10.1656C13.2167 9.97355 12.9026 9.87543 12.5281 9.85463C12.3983 9.84742 12.2437 9.86929 12.1128 9.91337C11.8762 9.99308 11.6873 10.1603 11.6079 10.3605C11.5641 10.4709 11.5496 10.5643 11.5608 10.6647C11.5945 10.9673 11.8154 11.191 12.2618 11.3747C12.3102 11.3946 12.4156 11.4333 12.4961 11.4607C12.7699 11.5541 12.9613 11.631 13.1432 11.7207C13.6673 11.9793 13.9407 12.2685 14.0215 12.6501C14.0413 12.7432 14.0458 12.928 14.0312 13.0446C13.9779 13.4699 13.7416 13.8102 13.3683 13.9995C13.2111 14.0792 13.0349 14.1309 12.8071 14.1642C12.7047 14.1792 12.4647 14.1791 12.3294 14.164C11.9448 14.1211 11.5654 13.9969 11.298 13.8264C11.1486 13.7312 10.9529 13.5842 10.9439 13.5606C10.9347 13.5365 10.9434 13.5193 11.0322 13.3855C11.1338 13.2323 11.152 13.2111 11.1812 13.2111C11.2063 13.2111 11.2198 13.2187 11.2681 13.26C11.3672 13.3449 11.5465 13.4605 11.6848 13.5288C11.985 13.6769 12.3211 13.7538 12.5906 13.736C12.9292 13.7136 13.2041 13.6064 13.3831 13.4268C13.4801 13.3294 13.5408 13.2257 13.5757 13.098C13.5914 13.0405 13.5929 13.0249 13.5928 12.9258C13.5927 12.8064 13.586 12.7696 13.5458 12.6683C13.4647 12.4633 13.2673 12.2753 12.9815 12.1306C12.8683 12.0733 12.7823 12.0386 12.6077 11.98C12.3646 11.8984 12.0099 11.7586 11.8388 11.6769C11.6723 11.5974 11.48 11.452 11.3642 11.3179C11.1738 11.0975 11.0881 10.8558 11.1004 10.5736C11.1153 10.2301 11.2878 9.92019 11.5834 9.70622C11.7815 9.56276 12.033 9.47057 12.306 9.44135C12.3819 9.43322 12.6492 9.43901 12.739 9.45073ZM8.59051 16.1738C8.32963 16.2071 8.12322 16.3724 8.06342 16.596C8.0482 16.6529 8.04814 16.7763 8.06331 16.8321C8.08751 16.9211 8.13144 16.9955 8.20018 17.064C8.30407 17.1675 8.42386 17.2275 8.73186 17.3306C8.98569 17.4155 9.09991 17.4931 9.16056 17.6217C9.17893 17.6607 9.18018 17.668 9.17989 17.7339C9.17954 17.8154 9.16832 17.8526 9.12624 17.912C9.04425 18.0278 8.84215 18.1014 8.65828 18.0825C8.49152 18.0653 8.34401 18.0049 8.16574 17.881C8.11295 17.8442 8.11175 17.845 8.03344 17.9626C8.00649 18.0031 7.99756 18.0217 8.00055 18.0312C8.00531 18.0464 8.06373 18.0946 8.12763 18.1362C8.33693 18.2723 8.6274 18.3393 8.85682 18.3044C9.07302 18.2715 9.22596 18.1855 9.32229 18.0428C9.35085 18.0005 9.38893 17.9157 9.40199 17.8654C9.41796 17.8038 9.42172 17.6691 9.40912 17.6092C9.39816 17.5569 9.36705 17.4854 9.33452 17.4375C9.28162 17.3596 9.17176 17.2731 9.04255 17.2076C8.95382 17.1626 8.87929 17.1329 8.72366 17.0807C8.57756 17.0317 8.46378 16.9773 8.40387 16.9278C8.35619 16.8884 8.31282 16.8275 8.29905 16.7807C8.26094 16.6509 8.33791 16.5056 8.48148 16.4363C8.54878 16.4038 8.60857 16.3909 8.69079 16.3909C8.8313 16.3909 8.9741 16.4316 9.1088 16.51C9.18699 16.5555 9.18748 16.5556 9.21432 16.527C9.25263 16.4861 9.30385 16.4044 9.30385 16.3841C9.30385 16.3596 9.26701 16.3315 9.1747 16.2853C9.05302 16.2244 8.91964 16.1877 8.76714 16.1731C8.6888 16.1656 8.65358 16.1657 8.59051 16.1738ZM9.64987 16.1765C9.6409 16.1856 9.63991 16.2908 9.63991 17.238C9.63991 17.9504 9.64203 18.2933 9.64647 18.3017C9.65255 18.3132 9.6607 18.3141 9.75666 18.3141C9.83355 18.3141 9.86204 18.312 9.86708 18.3059C9.87168 18.3002 9.87455 18.1748 9.876 17.9164C9.87795 17.5693 9.87917 17.532 9.88962 17.4999C9.93372 17.3645 10.0326 17.2657 10.163 17.2269C10.1883 17.2194 10.2224 17.2156 10.2645 17.2156C10.3379 17.2156 10.3821 17.2266 10.4479 17.2615C10.5341 17.3072 10.6017 17.388 10.6339 17.4839L10.6511 17.5352L10.6543 17.9231L10.6576 18.3109L10.7671 18.3127L10.8766 18.3144L10.8833 18.2966C10.8879 18.2846 10.8892 18.1566 10.8875 17.8974L10.885 17.516L10.8682 17.4527C10.8077 17.2252 10.6369 17.0563 10.4089 16.9984C10.3642 16.9871 10.3352 16.9843 10.2613 16.9844C10.1809 16.9845 10.1614 16.9867 10.106 17.0021C10.034 17.022 9.95318 17.0594 9.91002 17.0927C9.89392 17.1051 9.87935 17.1153 9.87763 17.1153C9.87592 17.1153 9.87452 16.9048 9.87452 16.6475C9.87452 16.1916 9.87421 16.1796 9.86226 16.1731C9.85536 16.1694 9.80833 16.1665 9.75491 16.1665C9.67693 16.1665 9.65805 16.1683 9.64987 16.1765ZM11.66 16.9745C11.4795 17.0032 11.3238 17.0955 11.2173 17.2371C11.1785 17.2886 11.1285 17.3913 11.1114 17.4543C11.0155 17.8094 11.2248 18.1698 11.5835 18.2672C11.6404 18.2826 11.6577 18.2844 11.7546 18.2844C11.8515 18.2844 11.8687 18.2826 11.9256 18.2672C12.1964 18.1937 12.3868 17.9717 12.4169 17.6945C12.4387 17.4944 12.3637 17.2939 12.2139 17.1517C12.1254 17.0676 12.0154 17.0094 11.8959 16.9833C11.8399 16.9711 11.7115 16.9663 11.66 16.9745ZM12.6724 16.9744L12.6581 16.9802V17.9863C12.6581 18.8977 12.6591 18.9927 12.6682 18.9962C12.6812 19.0013 12.857 19.0013 12.87 18.9962C12.879 18.9927 12.8801 18.9492 12.8801 18.5699C12.8801 18.3375 12.8822 18.1475 12.8848 18.1476C12.8874 18.1477 12.9067 18.1609 12.9276 18.177C12.9761 18.2142 13.0787 18.2649 13.14 18.2818C13.4811 18.3761 13.8402 18.188 13.9517 17.8567C14.0073 17.6913 13.9984 17.5176 13.9262 17.3607C13.8563 17.2089 13.7185 17.0771 13.5681 17.0182C13.4132 16.9576 13.224 16.9578 13.0736 17.0187C13.0148 17.0425 12.9586 17.0752 12.917 17.1098C12.9007 17.1234 12.8857 17.1345 12.8837 17.1345C12.8817 17.1345 12.8801 17.0998 12.8801 17.0574C12.8801 16.9806 12.88 16.9803 12.8638 16.9741C12.8435 16.9663 12.6918 16.9666 12.6724 16.9744ZM14.7569 16.9748C14.7343 16.9783 14.6882 16.9907 14.6545 17.0023C14.4931 17.058 14.3679 17.1708 14.2907 17.3301C14.2202 17.4757 14.205 17.6079 14.2398 17.774C14.2859 17.9943 14.4504 18.1791 14.6673 18.2541C14.747 18.2817 14.8313 18.291 14.9662 18.2868C15.0553 18.284 15.0816 18.2807 15.1437 18.2644C15.231 18.2414 15.3053 18.2075 15.3783 18.1575C15.4652 18.098 15.4701 18.0844 15.4285 18.0186C15.353 17.8993 15.347 17.8946 15.3112 17.9267C15.195 18.0306 15.0245 18.083 14.8632 18.0643C14.7799 18.0547 14.6969 18.0267 14.6421 17.9899C14.5594 17.9343 14.4887 17.84 14.4627 17.7504C14.4571 17.7313 14.4526 17.7147 14.4526 17.7135C14.4526 17.7124 14.6748 17.7115 14.9463 17.7115H15.44L15.4575 17.6976C15.486 17.6749 15.4911 17.6528 15.4854 17.5769C15.4725 17.405 15.4059 17.2633 15.2815 17.1436C15.1989 17.064 15.1133 17.0163 14.9994 16.9865C14.9416 16.9713 14.8183 16.9654 14.7569 16.9748ZM16.2776 16.9743C16.2127 16.9847 16.1624 17.0004 16.1032 17.0286C16.028 17.0644 15.9951 17.0875 15.9341 17.1469C15.8723 17.2071 15.8375 17.2556 15.8003 17.3336C15.6929 17.5588 15.7186 17.8274 15.8665 18.0264C15.9461 18.1335 16.0642 18.2171 16.1942 18.2586C16.3306 18.3021 16.5512 18.2991 16.7004 18.2518C16.8106 18.2168 16.9455 18.1338 16.9635 18.0898C16.9705 18.0728 16.9691 18.0676 16.9473 18.0307C16.9028 17.9554 16.8684 17.9102 16.8555 17.9102C16.8487 17.9102 16.8254 17.9247 16.8037 17.9423C16.6882 18.0364 16.5239 18.0826 16.3702 18.064C16.2582 18.0505 16.1798 18.0174 16.1031 17.9511C16.0453 17.9012 15.9819 17.7978 15.9709 17.7355L15.9666 17.7115L16.4572 17.7115C16.9322 17.7115 16.9483 17.7111 16.968 17.699C16.9991 17.6798 17.0053 17.65 16.9961 17.5641C16.9838 17.4491 16.9518 17.3542 16.8957 17.2664C16.7794 17.0842 16.5962 16.9779 16.3865 16.9709C16.3464 16.9696 16.2974 16.9711 16.2776 16.9743ZM14.944 17.206C14.9614 17.2097 15.0026 17.2257 15.0354 17.2416C15.1158 17.2805 15.1798 17.3437 15.2191 17.423L15.246 17.4775L14.861 17.4792C14.6492 17.4801 14.4748 17.4797 14.4735 17.4783C14.4684 17.4731 14.4976 17.4065 14.5199 17.3725C14.6108 17.2341 14.7743 17.1699 14.944 17.206ZM16.4658 17.209C16.5736 17.2355 16.683 17.3247 16.734 17.4278L16.7602 17.4807H16.3705H15.9809L15.9938 17.4477C16.0293 17.3567 16.0998 17.2792 16.1846 17.238C16.2751 17.1941 16.3666 17.1847 16.4658 17.209ZM11.868 17.2113C11.9454 17.2313 12.0003 17.2638 12.0627 17.3265C12.1493 17.4136 12.189 17.5084 12.1888 17.6279C12.1887 17.7021 12.1766 17.7576 12.1474 17.8174C12.0924 17.9301 11.989 18.0149 11.8655 18.0486C11.8101 18.0637 11.6995 18.0637 11.6436 18.0487C11.4892 18.0071 11.3697 17.8866 11.3302 17.7326C11.3175 17.683 11.3174 17.5803 11.33 17.5261C11.3645 17.378 11.4889 17.2512 11.6386 17.2116C11.7026 17.1946 11.8031 17.1945 11.868 17.2113ZM13.3784 17.2055C13.5402 17.2283 13.6718 17.3362 13.7314 17.495C13.7503 17.5454 13.7513 17.5525 13.7515 17.641C13.7517 17.7302 13.7508 17.7361 13.7316 17.787C13.6895 17.898 13.6182 17.9786 13.5173 18.0291C13.4347 18.0705 13.394 18.0792 13.3017 18.0753C13.237 18.0726 13.2177 18.0691 13.1723 18.0521C13.065 18.012 12.9778 17.9343 12.9307 17.8372C12.8652 17.7022 12.867 17.5667 12.936 17.4326C12.966 17.3744 13.0452 17.2926 13.103 17.2603C13.1948 17.2089 13.2808 17.1918 13.3784 17.2055Z" fill="#DBD1BC"/>
</svg>
