<svg width="13" height="19" viewBox="0 0 13 19" fill="none" xmlns="http://www.w3.org/2000/svg">
<path d="M6.33333 0C2.8319 0 0 2.9735 0 6.65C0 11.6375 6.33333 19 6.33333 19C6.33333 19 12.6667 11.6375 12.6667 6.65C12.6667 2.9735 9.83476 0 6.33333 0ZM1.80952 6.65C1.80952 4.028 3.83619 1.9 6.33333 1.9C8.83048 1.9 10.8571 4.028 10.8571 6.65C10.8571 9.386 8.25143 13.4805 6.33333 16.036C4.45143 13.4995 1.80952 9.3575 1.80952 6.65Z" fill="white"/>
<path d="M6.33332 10.1333C7.73244 10.1333 8.86665 8.9991 8.86665 7.59998C8.86665 6.20086 7.73244 5.06665 6.33332 5.06665C4.9342 5.06665 3.79999 6.20086 3.79999 7.59998C3.79999 8.9991 4.9342 10.1333 6.33332 10.1333Z" fill="white"/>
</svg>
