<svg width="25" height="25" viewBox="0 0 25 25" fill="none" xmlns="http://www.w3.org/2000/svg">
<rect width="25" height="25" rx="12.5" fill="url(#paint0_linear_347_34058)"/>
<path d="M10.4196 12.532C10.4196 11.3805 11.3526 10.4467 12.5038 10.4467C13.6551 10.4467 14.5886 11.3805 14.5886 12.532C14.5886 13.6836 13.6551 14.6174 12.5038 14.6174C11.3526 14.6174 10.4196 13.6836 10.4196 12.532ZM9.29259 12.532C9.29259 14.3061 10.7302 15.7442 12.5038 15.7442C14.2774 15.7442 15.715 14.3061 15.715 12.532C15.715 10.758 14.2774 9.31989 12.5038 9.31989C10.7302 9.31989 9.29259 10.758 9.29259 12.532ZM15.0917 9.19253C15.0917 9.341 15.1356 9.48615 15.218 9.60963C15.3004 9.73311 15.4176 9.82937 15.5547 9.88624C15.6918 9.94311 15.8427 9.95804 15.9883 9.92913C16.1339 9.90022 16.2676 9.82878 16.3726 9.72384C16.4776 9.6189 16.5491 9.48518 16.5781 9.33957C16.6071 9.19397 16.5923 9.04303 16.5356 8.90584C16.4789 8.76865 16.3827 8.65137 16.2593 8.56884C16.136 8.48631 15.9909 8.44222 15.8425 8.44216H15.8422C15.6432 8.44226 15.4524 8.52133 15.3117 8.66202C15.171 8.80272 15.0919 8.99352 15.0917 9.19253ZM9.9773 17.6239C9.36758 17.5961 9.03618 17.4946 8.81595 17.4087C8.52397 17.295 8.31565 17.1596 8.09662 16.9408C7.87759 16.722 7.74201 16.5138 7.62884 16.2218C7.54299 16.0016 7.44143 15.67 7.41371 15.0601C7.38339 14.4007 7.37734 14.2026 7.37734 12.5321C7.37734 10.8616 7.38389 10.664 7.41371 10.0041C7.44148 9.39421 7.54379 9.06326 7.62884 8.84242C7.74251 8.55036 7.87789 8.34197 8.09662 8.12288C8.31535 7.90378 8.52347 7.76816 8.81595 7.65496C9.03608 7.56909 9.36758 7.4675 9.9773 7.43977C10.6365 7.40945 10.8345 7.40339 12.5038 7.40339C14.1731 7.40339 14.3713 7.40995 15.0311 7.43977C15.6408 7.46755 15.9716 7.56989 16.1924 7.65496C16.4844 7.76816 16.6927 7.90409 16.9118 8.12288C17.1308 8.34167 17.2659 8.55036 17.3795 8.84242C17.4654 9.06261 17.5669 9.39421 17.5947 10.0041C17.625 10.664 17.631 10.8616 17.631 12.5321C17.631 14.2026 17.625 14.4002 17.5947 15.0601C17.5669 15.67 17.4648 16.0015 17.3795 16.2218C17.2659 16.5138 17.1305 16.7222 16.9118 16.9408C16.693 17.1594 16.4844 17.295 16.1924 17.4087C15.9723 17.4946 15.6408 17.5962 15.0311 17.6239C14.3719 17.6542 14.1739 17.6603 12.5038 17.6603C10.8338 17.6603 10.6363 17.6542 9.9773 17.6239ZM9.92551 6.31437C9.25977 6.3447 8.80484 6.45029 8.40755 6.60493C7.99611 6.76462 7.6478 6.97886 7.29974 7.32647C6.95168 7.67408 6.73805 8.02304 6.57841 8.43461C6.42382 8.83226 6.31825 9.28706 6.28793 9.95301C6.25712 10.62 6.25006 10.8332 6.25006 12.532C6.25006 14.2309 6.25712 14.4441 6.28793 15.1111C6.31825 15.7771 6.42382 16.2318 6.57841 16.6295C6.73805 17.0408 6.95173 17.3902 7.29974 17.7376C7.64775 18.0851 7.99611 18.299 8.40755 18.4592C8.80559 18.6138 9.25977 18.7194 9.92551 18.7497C10.5927 18.78 10.8055 18.7876 12.5038 18.7876C14.2021 18.7876 14.4153 18.7805 15.0821 18.7497C15.7479 18.7194 16.2025 18.6138 16.6001 18.4592C17.0113 18.299 17.3598 18.0852 17.7079 17.7376C18.0559 17.39 18.2691 17.0408 18.4292 16.6295C18.5838 16.2318 18.6899 15.777 18.7197 15.1111C18.75 14.4436 18.7571 14.2309 18.7571 12.532C18.7571 10.8332 18.75 10.62 18.7197 9.95301C18.6894 9.28701 18.5838 8.83201 18.4292 8.43461C18.2691 8.02329 18.0554 7.67463 17.7079 7.32647C17.3604 6.97831 17.0113 6.76462 16.6006 6.60493C16.2025 6.45029 15.7479 6.3442 15.0826 6.31437C14.4158 6.28405 14.2026 6.27649 12.5043 6.27649C10.806 6.27649 10.5927 6.28355 9.92551 6.31437Z" fill="white"/>
<defs>
<linearGradient id="paint0_linear_347_34058" x1="24.5195" y1="25" x2="-0.480499" y2="-6.7293e-07" gradientUnits="userSpaceOnUse">
<stop stop-color="#FBE18A"/>
<stop offset="0.21" stop-color="#FCBB45"/>
<stop offset="0.38" stop-color="#F75274"/>
<stop offset="0.52" stop-color="#D53692"/>
<stop offset="0.74" stop-color="#8F39CE"/>
<stop offset="1" stop-color="#5B4FE9"/>
</linearGradient>
</defs>
</svg>
