<svg width="27" height="21" viewBox="0 0 27 21" fill="none" xmlns="http://www.w3.org/2000/svg">
<path d="M25.5138 0.166626C26.0446 0.166626 26.4166 0.570918 26.4166 1.023C26.4166 1.34333 26.2294 1.68821 25.7747 1.92975C23.4652 3.15425 20.7914 7.38833 20.7914 10.0001C24.6871 9.88125 26.3792 13.3352 26.3792 15.5C26.3792 18.0924 24.1343 20.8333 20.8147 20.8333C16.6297 20.8333 14.5759 17.5434 14.5759 13.9784C14.5759 6.25425 23.4032 0.166626 25.5138 0.166626ZM11.5211 0.166626C12.0507 0.166626 12.424 0.570918 12.424 1.023C12.424 1.34333 12.2367 1.68821 11.7821 1.92975C9.47256 3.15425 6.79881 7.38833 6.79881 10.0001C10.6945 9.88125 12.3866 13.3352 12.3866 15.5C12.3866 18.0924 10.1404 20.8333 6.82206 20.8333C2.63577 20.8333 0.583313 17.5434 0.583313 13.9784C0.583313 6.25425 9.40927 0.166626 11.5211 0.166626Z" fill="#193446"/>
</svg>
