<svg width="25" height="25" viewBox="0 0 25 25" fill="none" xmlns="http://www.w3.org/2000/svg">
<circle cx="12.5" cy="12.5" r="12.5" fill="#FF5F00"/>
<path fill-rule="evenodd" clip-rule="evenodd" d="M12.3692 5.00647C11.962 5.04 11.5722 5.19956 11.2349 5.47078C11.1389 5.54799 10.9575 5.72999 10.8823 5.82465C10.5954 6.18548 10.4077 6.60037 10.3195 7.06866C10.2959 7.19417 10.2809 7.31418 10.2755 7.42134L10.2711 7.50818H9.19902C8.01608 7.50818 8.08595 7.50553 8.02505 7.55267C7.98067 7.58701 7.95504 7.6382 7.95076 7.70107C7.94882 7.72949 8.01547 9.2728 8.09885 11.1306C8.26388 14.807 8.25256 14.606 8.30347 14.7644C8.39813 15.0591 8.61949 15.2844 8.89236 15.3639C9.01702 15.4002 8.80392 15.3981 12.4925 15.3981C16.1901 15.3981 15.9717 15.4002 16.1068 15.3627C16.1814 15.342 16.3186 15.2727 16.3889 15.2203C16.5869 15.0727 16.7199 14.8482 16.7581 14.5971C16.7643 14.5561 16.8337 13.192 16.9356 11.1079C17.1016 7.71402 17.1028 7.68571 17.0904 7.64589C17.0752 7.59746 17.0352 7.55109 16.9886 7.52803L16.9558 7.51172L15.8696 7.50984L14.7834 7.50796L14.7795 7.46376C14.7773 7.43946 14.7722 7.38128 14.768 7.3345C14.7095 6.67661 14.4155 6.04191 13.9694 5.61038C13.5192 5.17494 12.9468 4.95891 12.3692 5.00647ZM12.7589 5.62502C12.9613 5.6636 13.1387 5.73536 13.3098 5.84782C13.6888 6.09698 13.9782 6.52766 14.0994 7.02258C14.1342 7.16465 14.1514 7.27951 14.1652 7.46033L14.1688 7.50818H12.5264H10.884L10.8885 7.42134C10.8968 7.26357 10.9327 7.06337 10.9809 6.90648C11.0972 6.52816 11.2964 6.21206 11.5647 5.97984C11.7908 5.78422 12.0413 5.66598 12.3296 5.61882C12.4112 5.60549 12.6766 5.60931 12.7589 5.62502ZM12.7656 8.81572C13.1652 8.86758 13.5122 8.98721 13.8495 9.18937C13.9351 9.24067 13.9759 9.2759 13.9831 9.30461C13.9894 9.32987 13.9719 9.36729 13.9013 9.47918C13.8731 9.52387 13.8394 9.57798 13.8265 9.59942C13.7765 9.68213 13.7603 9.68271 13.6374 9.60618C13.2963 9.39383 12.9473 9.28533 12.5313 9.26233C12.387 9.25436 12.2152 9.27854 12.0698 9.32728C11.8069 9.41542 11.597 9.60037 11.5088 9.82167C11.4601 9.94375 11.444 10.0471 11.4565 10.1581C11.4939 10.4927 11.7393 10.7401 12.2354 10.9432C12.2892 10.9652 12.4063 11.008 12.4956 11.0383C12.7999 11.1415 13.0126 11.2265 13.2147 11.3258C13.797 11.6117 14.1007 11.9315 14.1906 12.3535C14.2125 12.4564 14.2175 12.6608 14.2013 12.7897C14.1421 13.2599 13.8796 13.6362 13.4648 13.8456C13.2901 13.9337 13.0943 13.9909 12.8413 14.0277C12.7275 14.0443 12.4608 14.0442 12.3105 14.0275C11.8831 13.98 11.4615 13.8427 11.1645 13.6542C10.9984 13.5489 10.7809 13.3864 10.771 13.3603C10.7608 13.3336 10.7705 13.3146 10.8691 13.1667C10.982 12.9973 11.0022 12.9738 11.0347 12.9738C11.0625 12.9738 11.0775 12.9822 11.1312 13.0279C11.2414 13.1217 11.4406 13.2496 11.5942 13.3251C11.9278 13.4889 12.3012 13.574 12.6007 13.5543C12.9769 13.5295 13.2824 13.4109 13.4812 13.2123C13.589 13.1046 13.6565 12.99 13.6952 12.8488C13.7127 12.7852 13.7144 12.7679 13.7142 12.6583C13.7141 12.5263 13.7066 12.4856 13.662 12.3736C13.5719 12.147 13.3526 11.939 13.035 11.779C12.9093 11.7156 12.8136 11.6773 12.6196 11.6125C12.3495 11.5223 11.9555 11.3676 11.7653 11.2773C11.5803 11.1894 11.3667 11.0286 11.238 10.8804C11.0264 10.6366 10.9312 10.3694 10.9448 10.0573C10.9614 9.6775 11.1532 9.33483 11.4815 9.09822C11.7017 8.93959 11.9811 8.83765 12.2845 8.80534C12.3688 8.79635 12.6658 8.80276 12.7656 8.81572ZM8.15612 16.2498C7.86626 16.2867 7.63691 16.4695 7.57047 16.7167C7.55355 16.7797 7.55349 16.9161 7.57034 16.9778C7.59723 17.0762 7.64604 17.1585 7.72242 17.2342C7.83785 17.3486 7.97095 17.415 8.31318 17.529C8.59521 17.6229 8.72212 17.7087 8.78951 17.851C8.80992 17.8941 8.81131 17.9021 8.81099 17.975C8.8106 18.0651 8.79813 18.1062 8.75137 18.1719C8.66028 18.2999 8.43572 18.3813 8.23143 18.3604C8.04613 18.3414 7.88224 18.2747 7.68416 18.1376C7.6255 18.097 7.62417 18.0978 7.53715 18.2279C7.50721 18.2726 7.49729 18.2932 7.50061 18.3038C7.5059 18.3205 7.57081 18.3739 7.64181 18.4198C7.87437 18.5704 8.19712 18.6445 8.45202 18.6058C8.69224 18.5694 8.86218 18.4744 8.96921 18.3165C9.00095 18.2697 9.04325 18.176 9.05777 18.1204C9.07551 18.0523 9.07969 17.9033 9.06569 17.837C9.05351 17.7793 9.01895 17.7002 8.98281 17.6472C8.92402 17.5611 8.80195 17.4654 8.65839 17.393C8.5598 17.3432 8.47699 17.3105 8.30407 17.2527C8.14173 17.1985 8.01531 17.1384 7.94875 17.0836C7.89577 17.0401 7.84758 16.9728 7.83228 16.9209C7.78993 16.7774 7.87546 16.6168 8.03497 16.5402C8.10975 16.5043 8.17618 16.4899 8.26755 16.4899C8.42367 16.4899 8.58233 16.5349 8.732 16.6216C8.81888 16.672 8.81942 16.6721 8.84925 16.6404C8.89181 16.5952 8.94872 16.5048 8.94872 16.4825C8.94872 16.4554 8.90779 16.4242 8.80522 16.3731C8.67002 16.3059 8.52182 16.2653 8.35237 16.2491C8.26534 16.2408 8.2262 16.2409 8.15612 16.2498ZM9.33319 16.2529C9.32322 16.263 9.32212 16.3792 9.32212 17.4266C9.32212 18.2144 9.32448 18.5936 9.32941 18.6029C9.33617 18.6156 9.34522 18.6166 9.45185 18.6166C9.53727 18.6166 9.56893 18.6142 9.57453 18.6074C9.57964 18.6012 9.58284 18.4625 9.58445 18.1768C9.58661 17.793 9.58796 17.7518 9.59958 17.7163C9.64858 17.5665 9.75848 17.4573 9.90336 17.4144C9.93139 17.4061 9.96938 17.4018 10.0161 17.4018C10.0977 17.4018 10.1467 17.4141 10.2199 17.4526C10.3157 17.5031 10.3908 17.5925 10.4265 17.6986L10.4456 17.7553L10.4493 18.1842L10.4529 18.613L10.5745 18.615L10.6962 18.6169L10.7037 18.5973C10.7087 18.5839 10.7102 18.4423 10.7083 18.1558L10.7056 17.734L10.6869 17.664C10.6196 17.4125 10.4299 17.2257 10.1765 17.1617C10.1268 17.1492 10.0947 17.1461 10.0126 17.1462C9.92325 17.1463 9.90155 17.1488 9.83996 17.1657C9.76003 17.1878 9.6702 17.2291 9.62224 17.266C9.60436 17.2797 9.58817 17.2909 9.58626 17.2909C9.58436 17.2909 9.5828 17.0582 9.5828 16.7737C9.5828 16.2696 9.58246 16.2563 9.56917 16.2491C9.56152 16.245 9.50925 16.2418 9.4499 16.2418C9.36326 16.2418 9.34227 16.2438 9.33319 16.2529ZM11.5666 17.1353C11.3661 17.167 11.1932 17.2691 11.0747 17.4256C11.0317 17.4826 10.9761 17.5961 10.9572 17.6658C10.8505 18.0584 11.0831 18.457 11.4817 18.5647C11.5449 18.5817 11.5641 18.5837 11.6717 18.5837C11.7794 18.5837 11.7986 18.5817 11.8618 18.5647C12.1626 18.4834 12.3742 18.238 12.4077 17.9314C12.4318 17.7102 12.3485 17.4885 12.1822 17.3312C12.0838 17.2382 11.9616 17.1739 11.8288 17.145C11.7666 17.1315 11.6239 17.1262 11.5666 17.1353ZM12.6916 17.1352L12.6757 17.1416V18.2541C12.6757 19.2619 12.6768 19.3669 12.6869 19.3708C12.7014 19.3764 12.8966 19.3764 12.9111 19.3708C12.9212 19.3669 12.9223 19.3188 12.9223 18.8994C12.9223 18.6425 12.9247 18.4324 12.9276 18.4325C12.9305 18.4326 12.9519 18.4472 12.9751 18.4649C13.029 18.5061 13.143 18.5621 13.2111 18.5809C13.5902 18.6851 13.9891 18.4771 14.113 18.1108C14.1748 17.9279 14.1649 17.7359 14.0846 17.5623C14.007 17.3944 13.8539 17.2487 13.6868 17.1836C13.5146 17.1166 13.3044 17.1168 13.1374 17.1841C13.072 17.2104 13.0096 17.2466 12.9633 17.2849C12.9452 17.2999 12.9285 17.3122 12.9263 17.3122C12.9241 17.3122 12.9223 17.2739 12.9223 17.227C12.9223 17.142 12.9222 17.1417 12.9042 17.1348C12.8817 17.1262 12.7131 17.1265 12.6916 17.1352ZM15.0077 17.1356C14.9825 17.1395 14.9313 17.1531 14.8939 17.166C14.7145 17.2276 14.5754 17.3523 14.4897 17.5284C14.4113 17.6895 14.3945 17.8356 14.4331 18.0193C14.4843 18.2629 14.6671 18.4672 14.9081 18.5503C14.9967 18.5808 15.0904 18.591 15.2402 18.5864C15.3393 18.5833 15.3684 18.5796 15.4375 18.5615C15.5344 18.5361 15.6171 18.4987 15.6982 18.4434C15.7946 18.3776 15.8001 18.3626 15.7538 18.2898C15.67 18.1578 15.6634 18.1527 15.6235 18.1882C15.4944 18.3031 15.3049 18.361 15.1257 18.3404C15.0333 18.3297 14.941 18.2988 14.8801 18.258C14.7882 18.1966 14.7097 18.0923 14.6808 17.9932C14.6746 17.9721 14.6695 17.9537 14.6695 17.9525C14.6695 17.9512 14.9164 17.9502 15.2181 17.9502H15.7667L15.7861 17.9348C15.8178 17.9098 15.8235 17.8853 15.8172 17.8013C15.8028 17.6113 15.7287 17.4546 15.5906 17.3222C15.4988 17.2342 15.4036 17.1815 15.2771 17.1485C15.2129 17.1318 15.0759 17.1252 15.0077 17.1356ZM16.6973 17.1351C16.6253 17.1466 16.5693 17.1639 16.5036 17.1951C16.42 17.2347 16.3834 17.2602 16.3156 17.3259C16.247 17.3924 16.2083 17.4461 16.167 17.5324C16.0477 17.7813 16.0762 18.0784 16.2405 18.2984C16.329 18.4168 16.4602 18.5093 16.6047 18.5552C16.7562 18.6033 17.0013 18.6 17.1671 18.5476C17.2896 18.509 17.4394 18.4172 17.4594 18.3686C17.4672 18.3497 17.4656 18.3439 17.4415 18.3032C17.392 18.2199 17.3537 18.17 17.3394 18.17C17.3319 18.17 17.306 18.1859 17.2819 18.2055C17.1536 18.3095 16.9709 18.3605 16.8002 18.3401C16.6758 18.3251 16.5887 18.2885 16.5034 18.2151C16.4393 18.16 16.3688 18.0456 16.3565 17.9768L16.3518 17.9502L16.8968 17.9502C17.4246 17.9502 17.4426 17.9497 17.4644 17.9363C17.499 17.9151 17.5059 17.8822 17.4957 17.7872C17.482 17.66 17.4464 17.5552 17.3841 17.4581C17.2549 17.2565 17.0514 17.139 16.8184 17.1313C16.7738 17.1299 16.7193 17.1315 16.6973 17.1351ZM15.2156 17.3912C15.2349 17.3953 15.2806 17.413 15.3171 17.4306C15.4064 17.4736 15.4776 17.5435 15.5212 17.6312L15.5512 17.6915L15.1233 17.6933C14.888 17.6943 14.6943 17.6939 14.6928 17.6924C14.6871 17.6867 14.7195 17.613 14.7443 17.5754C14.8453 17.4223 15.027 17.3513 15.2156 17.3912ZM16.9064 17.3946C17.0263 17.4239 17.1478 17.5225 17.2045 17.6365L17.2335 17.695H16.8006H16.3677L16.382 17.6585C16.4214 17.5579 16.4998 17.4722 16.594 17.4267C16.6945 17.3781 16.7962 17.3677 16.9064 17.3946ZM11.7978 17.3971C11.8838 17.4192 11.9448 17.4551 12.0141 17.5245C12.1104 17.6208 12.1544 17.7256 12.1542 17.8578C12.1541 17.9398 12.1406 18.0012 12.1082 18.0673C12.0471 18.192 11.9322 18.2858 11.795 18.3229C11.7334 18.3396 11.6105 18.3397 11.5485 18.3231C11.3769 18.2771 11.2441 18.1439 11.2002 17.9736C11.1861 17.9187 11.186 17.8051 11.2 17.7453C11.2384 17.5814 11.3766 17.4413 11.5429 17.3974C11.614 17.3787 11.7257 17.3785 11.7978 17.3971ZM13.476 17.3907C13.6557 17.4159 13.802 17.5353 13.8682 17.7108C13.8892 17.7666 13.8903 17.7745 13.8905 17.8722C13.8907 17.9708 13.8898 17.9774 13.8684 18.0337C13.8217 18.1564 13.7424 18.2456 13.6303 18.3014C13.5386 18.3471 13.4933 18.3568 13.3908 18.3525C13.3189 18.3495 13.2974 18.3457 13.247 18.3269C13.1278 18.2825 13.0308 18.1966 12.9785 18.0892C12.9058 17.9399 12.9078 17.7901 12.9845 17.6418C13.0178 17.5774 13.1058 17.4871 13.17 17.4513C13.272 17.3944 13.3675 17.3755 13.476 17.3907Z" fill="white"/>
</svg>
