<svg width="25" height="25" viewBox="0 0 25 25" fill="none" xmlns="http://www.w3.org/2000/svg">
<rect width="25" height="25" rx="12.5" fill="black"/>
<path fill-rule="evenodd" clip-rule="evenodd" d="M15.2001 10.8008C16.0375 11.3966 17.0402 11.7149 18.0675 11.711V9.67321C17.8655 9.67377 17.6641 9.65213 17.4669 9.60868V11.2321C16.4373 11.2339 15.4331 10.912 14.5961 10.3117V14.5028C14.5936 15.1905 14.4052 15.8647 14.0508 16.4539C13.6965 17.0431 13.1894 17.5254 12.5834 17.8496C11.9774 18.1737 11.2951 18.3277 10.6088 18.2952C9.92242 18.2626 9.25767 18.0448 8.685 17.6648C9.21471 18.2012 9.89154 18.5682 10.6298 18.7194C11.3681 18.8706 12.1345 18.7991 12.8322 18.5139C13.5298 18.2288 14.1272 17.7429 14.5487 17.1177C14.9703 16.4926 15.197 15.7563 15.2001 15.002V10.8008ZM15.9433 8.72224C15.5175 8.26031 15.2562 7.67044 15.2001 7.04445V6.77954H14.6301C14.7005 7.17745 14.8539 7.55605 15.0801 7.89076C15.3064 8.22546 15.6005 8.50876 15.9433 8.72224ZM10.005 16.0515C9.80741 15.7929 9.68632 15.484 9.65552 15.1599C9.62471 14.8358 9.68543 14.5095 9.83075 14.2183C9.97607 13.927 10.2002 13.6824 10.4775 13.5124C10.7549 13.3423 11.0744 13.2536 11.3996 13.2563C11.5792 13.2563 11.7577 13.2838 11.929 13.3378V11.2321C11.7288 11.2056 11.5269 11.1942 11.325 11.1982V12.8352C10.908 12.7033 10.4567 12.7333 10.0608 12.9192C9.66485 13.1052 9.35339 13.4335 9.18832 13.8388C9.02324 14.2442 9.01666 14.6969 9.16986 15.1069C9.32307 15.5168 9.62485 15.8541 10.0152 16.0515H10.005Z" fill="#EE1D52"/>
<path fill-rule="evenodd" clip-rule="evenodd" d="M14.5959 10.2981C15.4328 10.8984 16.437 11.2204 17.4666 11.2185V9.59509C16.88 9.47095 16.3471 9.16565 15.943 8.72224C15.6002 8.50876 15.3061 8.22546 15.0799 7.89076C14.8536 7.55605 14.7003 7.17745 14.6298 6.77954H13.13V15.002C13.1286 15.366 13.0133 15.7204 12.8004 16.0154C12.5875 16.3105 12.2877 16.5314 11.9429 16.6472C11.5982 16.7629 11.2258 16.7678 10.8782 16.6609C10.5306 16.5541 10.2252 16.341 10.0047 16.0515C9.6554 15.8751 9.37564 15.586 9.21058 15.2309C9.04553 14.8759 9.00481 14.4755 9.095 14.0944C9.18519 13.7133 9.40102 13.3738 9.70767 13.1305C10.0143 12.8873 10.3939 12.7545 10.7852 12.7537C10.9647 12.7542 11.1431 12.7817 11.3145 12.8352V11.1982C10.574 11.216 9.85473 11.4498 9.24507 11.8709C8.63542 12.2921 8.16189 12.8823 7.88261 13.569C7.60334 14.2557 7.53048 15.0091 7.67297 15.7367C7.81546 16.4643 8.1671 17.1344 8.68473 17.6648C9.25752 18.0475 9.92332 18.2676 10.6112 18.3016C11.2991 18.3355 11.9833 18.1821 12.5909 17.8576C13.1986 17.5331 13.7069 17.0497 14.0618 16.459C14.4166 15.8682 14.6047 15.1921 14.6061 14.5028L14.5959 10.2981Z" fill="white"/>
<path fill-rule="evenodd" clip-rule="evenodd" d="M17.4668 9.59494V9.15682C16.9281 9.15911 16.3997 9.00836 15.9432 8.72209C16.3462 9.16677 16.8796 9.47233 17.4668 9.59494ZM14.63 6.77939C14.63 6.70127 14.6062 6.61976 14.5961 6.54165V6.27673H12.5261V14.5026C12.5243 14.9632 12.34 15.4043 12.0137 15.729C11.6873 16.0538 11.2456 16.2357 10.7854 16.2348C10.5144 16.2361 10.247 16.1733 10.0049 16.0514C10.2253 16.3408 10.5308 16.5539 10.8784 16.6608C11.226 16.7676 11.5983 16.7628 11.9431 16.647C12.2878 16.5313 12.5877 16.3103 12.8006 16.0153C13.0135 15.7202 13.1287 15.3658 13.1301 15.0019V6.77939H14.63ZM11.3147 11.1946V10.7293C10.463 10.6135 9.59713 10.7898 8.85832 11.2296C8.11952 11.6694 7.55131 12.3466 7.2463 13.151C6.94129 13.9554 6.91747 14.8394 7.17871 15.659C7.43996 16.4787 7.97086 17.1856 8.68491 17.6646C8.1712 17.133 7.8233 16.4632 7.68372 15.7369C7.54414 15.0106 7.61892 14.2594 7.89892 13.575C8.17892 12.8906 8.65203 12.3026 9.26043 11.8829C9.86884 11.4632 10.5862 11.2299 11.3249 11.2116L11.3147 11.1946Z" fill="#69C9D0"/>
</svg>
