<svg width="38" height="38" viewBox="0 0 38 38" fill="none" xmlns="http://www.w3.org/2000/svg">
<path d="M0 38L2.68577 28.2472C1.02531 25.3845 0.15425 22.1426 0.163324 18.8284C0.163324 8.44344 8.65615 0 19.0816 0C24.1447 0 28.8992 1.9596 32.4651 5.51759C36.0401 9.07557 38.009 13.8075 38 18.8375C38 29.2224 29.5071 37.6659 19.0726 37.6659H19.0635C15.8968 37.6659 12.7846 36.8712 10.0172 35.3722L0 38ZM10.4981 31.9677L11.0697 32.3108C13.4833 33.7376 16.2507 34.4872 19.0726 34.4962H19.0816C27.7469 34.4962 34.8061 27.4796 34.8061 18.8465C34.8061 14.6654 33.1728 10.7372 30.2058 7.77519C27.2388 4.81321 23.2827 3.18774 19.0816 3.18774C10.4164 3.17871 3.35721 10.1953 3.35721 18.8284C3.35721 21.7814 4.1829 24.6621 5.7617 27.1545L6.13371 27.7505L4.54584 33.5209L10.4981 31.9677Z" fill="white"/>
<path d="M0.662354 37.3408L3.25739 27.9221C1.65137 25.1678 0.80753 22.0342 0.80753 18.8375C0.816604 8.81371 9.01001 0.659241 19.0816 0.659241C23.9723 0.659241 28.5544 2.55563 32.0023 5.98719C35.4503 9.41875 37.3467 13.9881 37.3467 18.8465C37.3467 28.8703 29.1442 37.0247 19.0816 37.0247H19.0726C16.0148 37.0247 13.0114 36.2572 10.3438 34.8123L0.662354 37.3408Z" fill="url(#paint0_linear_347_34097)"/>
<path d="M0 38L2.68577 28.2472C1.02531 25.3845 0.15425 22.1426 0.163324 18.8284C0.163324 8.44344 8.65615 0 19.0816 0C24.1447 0 28.8992 1.9596 32.4651 5.51759C36.0401 9.07557 38.009 13.8075 38 18.8375C38 29.2224 29.5071 37.6659 19.0726 37.6659H19.0635C15.8968 37.6659 12.7846 36.8712 10.0172 35.3722L0 38ZM10.4981 31.9677L11.0697 32.3108C13.4833 33.7376 16.2507 34.4872 19.0726 34.4962H19.0816C27.7469 34.4962 34.8061 27.4796 34.8061 18.8465C34.8061 14.6654 33.1728 10.7372 30.2058 7.77519C27.2388 4.81321 23.2827 3.18774 19.0816 3.18774C10.4164 3.17871 3.35721 10.1953 3.35721 18.8284C3.35721 21.7814 4.1829 24.6621 5.7617 27.1545L6.13371 27.7505L4.54584 33.5209L10.4981 31.9677Z" fill="url(#paint1_linear_347_34097)"/>
<path fill-rule="evenodd" clip-rule="evenodd" d="M14.3542 10.954C14.0004 10.1683 13.6283 10.1503 13.2926 10.1412C13.0204 10.1322 12.7028 10.1322 12.3853 10.1322C12.0677 10.1322 11.5596 10.2496 11.124 10.7192C10.6885 11.1888 9.47266 12.3266 9.47266 14.6474C9.47266 16.9592 11.1694 19.1987 11.4053 19.5148C11.6412 19.8309 14.6809 24.7344 19.4808 26.6217C23.4731 28.193 24.2897 27.877 25.1517 27.7957C26.0137 27.7144 27.9464 26.6579 28.3456 25.5562C28.7358 24.4544 28.7358 23.5153 28.6178 23.3166C28.4999 23.1179 28.1823 23.0006 27.7105 22.7658C27.2386 22.531 24.9158 21.3931 24.4803 21.2306C24.0448 21.0771 23.7272 20.9958 23.4187 21.4654C23.1011 21.935 22.1938 22.9915 21.9215 23.3076C21.6493 23.6236 21.3681 23.6598 20.8962 23.425C20.4244 23.1902 18.9001 22.6935 17.0944 21.0861C15.688 19.8399 14.7353 18.2957 14.4631 17.8261C14.1909 17.3565 14.4359 17.1037 14.6718 16.8689C14.8805 16.6612 15.1436 16.318 15.3795 16.0471C15.6154 15.7762 15.6971 15.5775 15.8514 15.2615C16.0056 14.9454 15.933 14.6745 15.8151 14.4397C15.6971 14.214 14.7716 11.8841 14.3542 10.954Z" fill="white"/>
<defs>
<linearGradient id="paint0_linear_347_34097" x1="19.0036" y1="37.339" x2="19.0036" y2="0.657957" gradientUnits="userSpaceOnUse">
<stop stop-color="#20B038"/>
<stop offset="1" stop-color="#60D66A"/>
</linearGradient>
<linearGradient id="paint1_linear_347_34097" x1="19.0037" y1="37.9964" x2="19.0037" y2="0" gradientUnits="userSpaceOnUse">
<stop stop-color="#F9F9F9"/>
<stop offset="1" stop-color="white"/>
</linearGradient>
</defs>
</svg>
