<svg width="25" height="25" viewBox="0 0 25 25" fill="none" xmlns="http://www.w3.org/2000/svg">
<rect width="25" height="25" rx="12.5" fill="#00D95F"/>
<path d="M6.25 18.2872L7.14685 14.9525C6.42356 13.6535 6.19377 12.1377 6.49963 10.6831C6.80549 9.2286 7.6265 7.93298 8.81198 7.034C9.99747 6.13503 11.4679 5.693 12.9535 5.78904C14.4391 5.88508 15.8402 6.51273 16.8996 7.55684C17.9591 8.60094 18.6059 9.99145 18.7213 11.4732C18.8367 12.955 18.413 14.4286 17.5279 15.6236C16.6429 16.8187 15.3559 17.655 13.903 17.9792C12.4501 18.3033 10.9289 18.0936 9.61847 17.3884L6.25 18.2872ZM9.78089 16.1405L9.98921 16.2639C10.9384 16.8255 12.047 17.058 13.1423 16.9249C14.2376 16.7919 15.2581 16.3009 16.0447 15.5284C16.8313 14.7559 17.3398 13.7453 17.4911 12.6542C17.6423 11.563 17.4277 10.4526 16.8808 9.49585C16.3339 8.53914 15.4853 7.78992 14.4674 7.36495C13.4494 6.93998 12.3192 6.86313 11.2529 7.14637C10.1867 7.42961 9.24417 8.05704 8.57235 8.93087C7.90054 9.8047 7.53714 10.8759 7.53878 11.9774C7.53788 12.8908 7.7909 13.7865 8.26967 14.5648L8.40031 14.7798L7.89893 16.641L9.78089 16.1405Z" fill="white"/>
<path fill-rule="evenodd" clip-rule="evenodd" d="M14.8371 12.8337C14.715 12.7353 14.572 12.6661 14.419 12.6313C14.2661 12.5965 14.1071 12.597 13.9544 12.6327C13.7249 12.7279 13.5766 13.0875 13.4283 13.2672C13.397 13.3103 13.3511 13.3406 13.2991 13.3523C13.2471 13.3639 13.1926 13.3563 13.1458 13.3307C12.3056 13.0021 11.6013 12.3996 11.1473 11.6211C11.1086 11.5725 11.0903 11.5108 11.0962 11.449C11.1021 11.3872 11.1319 11.3301 11.1791 11.2897C11.3445 11.1262 11.466 10.9238 11.5322 10.701C11.5469 10.4553 11.4905 10.2106 11.3698 9.99601C11.2764 9.69517 11.0988 9.42729 10.8578 9.22403C10.7335 9.16822 10.5957 9.14951 10.461 9.17015C10.3263 9.19079 10.2005 9.2499 10.0987 9.34035C9.92193 9.49258 9.78165 9.68244 9.68816 9.89596C9.59466 10.1095 9.55033 10.3412 9.55844 10.5741C9.55898 10.7049 9.57558 10.8351 9.60787 10.9619C9.68986 11.2664 9.81595 11.5573 9.98214 11.8255C10.1021 12.0309 10.2329 12.2298 10.3741 12.4212C10.8329 13.0501 11.4097 13.584 12.0724 13.9934C12.405 14.2014 12.7604 14.3706 13.1317 14.4975C13.5174 14.672 13.9432 14.739 14.364 14.6914C14.6037 14.6551 14.8309 14.5606 15.0254 14.4162C15.22 14.2717 15.376 14.0818 15.4797 13.863C15.5407 13.7308 15.5592 13.5831 15.5327 13.44C15.4691 13.1474 15.0772 12.9747 14.8371 12.8337Z" fill="white"/>
</svg>
